# xmcd
#
# Track frame offsets: 
#        150
#        11817
#        21120
#        37826
#        50514
#        65347
#        76476
#        94934
#        111844
#        129074
#        144400
#        161721
#        178660
#        192432
#        209847
#        232963
#
# Disc length: 3436 seconds
#
# Revision: 0
# Processed by: cddbd v1.5.1PL2 Copyright (c) Steve Scherf et al.
# Submitted via: ExactAudioCopy v0.95b3
#
DISCID=d80d6a10
DTITLE=Bobby Womack - Soul Brother
DYEAR=1999
DGENRE=Soul
TTITLE0=What Is This
TTITLE1=I'm A Midnight Mover
TTITLE2=If You Want My Love, Put Something Down On It
TTITLE3=Don't Look Back
TTITLE4=How I  Miss You Baby
TTITLE5=I'm Gonna Forget About You
TTITLE6=I Can Understand It
TTITLE7=You're Welcome, Stop On By
TTITLE8=I'm Through Trying To Prove My Love To You
TTITLE9=I Don't Wannna Be Hurt By Ya Love Again
TTITLE10=Check It Out
TTITLE11=So Many Sides Of You
TTITLE12=Where There's A Will, There's A Way
TTITLE13=Across 110th Street
TTITLE14=Just My Imagination
TTITLE15=If You Think You're Lonely Now
EXTD=
EXTT0=
EXTT1=
EXTT2=
EXTT3=
EXTT4=
EXTT5=
EXTT6=
EXTT7=
EXTT8=
EXTT9=
EXTT10=
EXTT11=
EXTT12=
EXTT13=
EXTT14=
EXTT15=
PLAYORDER=
